<svg width="56" height="56" viewBox="0 0 56 56" fill="none" xmlns="http://www.w3.org/2000/svg">
<rect width="56" height="56" rx="15.5556" fill="#0062FF"/>
<path d="M31.8163 19.6622C32.3141 20.3985 32.6044 21.28 32.6044 22.2341C32.5941 24.7229 30.6341 26.7452 28.1659 26.8281C28.0622 26.8178 27.9378 26.8178 27.8237 26.8281C25.5319 26.7555 23.6756 25.0029 23.4267 22.7629C23.1259 20.0978 25.3141 17.6296 27.9896 17.6296" stroke="white" stroke-width="1.5" stroke-linecap="round" stroke-linejoin="round"/>
<path d="M22.8044 30.6548C20.2948 32.3348 20.2948 35.0726 22.8044 36.7422C25.6563 38.6504 30.3333 38.6504 33.1852 36.7422C35.6948 35.0622 35.6948 32.3244 33.1852 30.6548C30.3541 28.757 25.677 28.757 22.8044 30.6548Z" stroke="white" stroke-width="1.5" stroke-linecap="round" stroke-linejoin="round"/>
</svg>
