<svg width="19" height="20" viewBox="0 0 19 20" fill="none" xmlns="http://www.w3.org/2000/svg">
<path d="M14.6581 11.3131C12.6965 11.3276 11.138 12.9565 11.151 14.9253C11.164 16.8942 12.7437 18.4999 14.7053 18.4855C16.6669 18.471 18.2253 16.8421 18.2124 14.8732C18.1994 12.9044 16.6196 11.2986 14.6581 11.3131Z" stroke="#808080" stroke-width="1.3"/>
<rect x="0.654266" y="0.645192" width="7.06153" height="7.17254" rx="1.65" transform="matrix(-0.999973 0.00737573 -0.00659019 -0.999978 8.69457 18.841)" stroke="#808080" stroke-width="1.3" stroke-linejoin="round"/>
<path d="M4.5252 8.55065C6.48678 8.53618 8.04521 6.90727 8.03224 4.93842C8.01926 2.96957 6.43951 1.3638 4.47794 1.37827C2.51636 1.39273 0.957925 3.02165 0.9709 4.9905C0.983876 6.95935 2.56363 8.56512 4.5252 8.55065Z" stroke="#808080" stroke-width="1.3"/>
<rect x="-0.654266" y="-0.645192" width="7.06153" height="7.17254" rx="1.65" transform="matrix(0.999973 -0.00737573 0.00659019 0.999978 11.7859 2.04466)" stroke="#808080" stroke-width="1.3" stroke-linejoin="round"/>
</svg>
